<mxfile host="app.diagrams.net" agent="Mozilla/5.0 (Windows NT 10.0; Win64; x64) AppleWebKit/537.36 (KHTML, like Gecko) Chrome/127.0.0.0 Safari/537.36" version="24.7.7">
  <diagram name="Page-1" id="xYsEX8dRRKA42pnCce7e">
    <mxGraphModel dx="3212" dy="1395" grid="1" gridSize="10" guides="1" tooltips="1" connect="1" arrows="1" fold="1" page="1" pageScale="1" pageWidth="827" pageHeight="1169" math="0" shadow="0">
      <root>
        <mxCell id="0" />
        <mxCell id="1" parent="0" />
        <mxCell id="mPellnfy7F6oBToL4v57-40" value="源端口号(16位)" style="rounded=0;whiteSpace=wrap;html=1;fontSize=14;fillColor=#f5f5f5;strokeColor=#666666;fontColor=#333333;" parent="1" vertex="1">
          <mxGeometry x="-278" y="170" width="360" height="50" as="geometry" />
        </mxCell>
        <mxCell id="mPellnfy7F6oBToL4v57-41" value="目标端口号(16位)" style="rounded=0;whiteSpace=wrap;html=1;fontSize=14;fillColor=#f5f5f5;strokeColor=#666666;fontColor=#333333;" parent="1" vertex="1">
          <mxGeometry x="82" y="170" width="360" height="50" as="geometry" />
        </mxCell>
        <mxCell id="mPellnfy7F6oBToL4v57-43" value="序列号&lt;span style=&quot;color: rgb(51, 51, 51);&quot;&gt;(32位)&lt;/span&gt;" style="rounded=0;whiteSpace=wrap;html=1;fontSize=14;fillColor=#ffe6cc;strokeColor=#d79b00;" parent="1" vertex="1">
          <mxGeometry x="-278" y="220" width="720" height="50" as="geometry" />
        </mxCell>
        <mxCell id="mPellnfy7F6oBToL4v57-44" value="确认应答号&lt;span style=&quot;color: rgb(51, 51, 51);&quot;&gt;(32位)&lt;/span&gt;" style="rounded=0;whiteSpace=wrap;html=1;fontSize=14;fillColor=#fff2cc;strokeColor=#d6b656;" parent="1" vertex="1">
          <mxGeometry x="-278" y="270" width="720" height="50" as="geometry" />
        </mxCell>
        <mxCell id="mPellnfy7F6oBToL4v57-45" value="窗口大小(16位)" style="rounded=0;whiteSpace=wrap;html=1;fontSize=14;fillColor=#f5f5f5;strokeColor=#666666;fontColor=#333333;" parent="1" vertex="1">
          <mxGeometry x="82" y="320" width="360" height="50" as="geometry" />
        </mxCell>
        <mxCell id="mPellnfy7F6oBToL4v57-46" value="头部长度(4位)" style="rounded=0;whiteSpace=wrap;html=1;fontSize=14;fillColor=#f5f5f5;strokeColor=#666666;fontColor=#333333;" parent="1" vertex="1">
          <mxGeometry x="-278" y="320" width="70" height="50" as="geometry" />
        </mxCell>
        <mxCell id="mPellnfy7F6oBToL4v57-47" value="保留&lt;div&gt;(6位)&lt;/div&gt;" style="rounded=0;whiteSpace=wrap;html=1;fontSize=14;fillColor=#f5f5f5;strokeColor=#666666;fontColor=#333333;" parent="1" vertex="1">
          <mxGeometry x="-208" y="320" width="50" height="50" as="geometry" />
        </mxCell>
        <mxCell id="mPellnfy7F6oBToL4v57-48" value="U&lt;div style=&quot;font-size: 12px;&quot;&gt;R&lt;/div&gt;&lt;div style=&quot;font-size: 12px;&quot;&gt;G&lt;/div&gt;" style="rounded=0;whiteSpace=wrap;html=1;fontSize=12;fillColor=#f5f5f5;strokeColor=#666666;fontColor=#333333;verticalAlign=middle;" parent="1" vertex="1">
          <mxGeometry x="-158" y="320" width="40" height="50" as="geometry" />
        </mxCell>
        <mxCell id="mPellnfy7F6oBToL4v57-49" value="A&lt;div style=&quot;font-size: 12px;&quot;&gt;C&lt;/div&gt;&lt;div style=&quot;font-size: 12px;&quot;&gt;K&lt;/div&gt;" style="rounded=0;whiteSpace=wrap;html=1;fontSize=12;fillColor=#b0e3e6;strokeColor=#0e8088;verticalAlign=middle;" parent="1" vertex="1">
          <mxGeometry x="-118" y="320" width="40" height="50" as="geometry" />
        </mxCell>
        <mxCell id="mPellnfy7F6oBToL4v57-50" value="P&lt;div style=&quot;font-size: 12px;&quot;&gt;S&lt;/div&gt;&lt;div style=&quot;font-size: 12px;&quot;&gt;H&lt;/div&gt;" style="rounded=0;whiteSpace=wrap;html=1;fontSize=12;fillColor=#f5f5f5;strokeColor=#666666;fontColor=#333333;verticalAlign=middle;" parent="1" vertex="1">
          <mxGeometry x="-78" y="320" width="40" height="50" as="geometry" />
        </mxCell>
        <mxCell id="mPellnfy7F6oBToL4v57-51" value="R&lt;div style=&quot;font-size: 12px;&quot;&gt;S&lt;/div&gt;&lt;div style=&quot;font-size: 12px;&quot;&gt;T&lt;/div&gt;" style="rounded=0;whiteSpace=wrap;html=1;fontSize=12;fillColor=#f8cecc;strokeColor=#b85450;verticalAlign=middle;" parent="1" vertex="1">
          <mxGeometry x="-38" y="320" width="40" height="50" as="geometry" />
        </mxCell>
        <mxCell id="mPellnfy7F6oBToL4v57-52" value="S&lt;div style=&quot;font-size: 12px;&quot;&gt;Y&lt;/div&gt;&lt;div style=&quot;font-size: 12px;&quot;&gt;N&lt;/div&gt;" style="rounded=0;whiteSpace=wrap;html=1;fontSize=12;fillColor=#e1d5e7;strokeColor=#9673a6;verticalAlign=middle;" parent="1" vertex="1">
          <mxGeometry x="2" y="320" width="40" height="50" as="geometry" />
        </mxCell>
        <mxCell id="mPellnfy7F6oBToL4v57-53" value="F&lt;div style=&quot;font-size: 12px;&quot;&gt;I&lt;/div&gt;&lt;div style=&quot;font-size: 12px;&quot;&gt;N&lt;/div&gt;" style="rounded=0;whiteSpace=wrap;html=1;fontSize=12;fillColor=#e3c800;strokeColor=#B09500;fontColor=#000000;verticalAlign=middle;" parent="1" vertex="1">
          <mxGeometry x="42" y="320" width="40" height="50" as="geometry" />
        </mxCell>
        <mxCell id="mPellnfy7F6oBToL4v57-54" value="可选项(长度可变)" style="rounded=0;whiteSpace=wrap;html=1;fontSize=14;fillColor=#f5f5f5;fontColor=#333333;strokeColor=#666666;" parent="1" vertex="1">
          <mxGeometry x="-278" y="420" width="720" height="50" as="geometry" />
        </mxCell>
        <mxCell id="mPellnfy7F6oBToL4v57-55" value="数据" style="rounded=0;whiteSpace=wrap;html=1;fontSize=14;fillColor=#f5f5f5;fontColor=#333333;strokeColor=#666666;" parent="1" vertex="1">
          <mxGeometry x="-278" y="470" width="720" height="50" as="geometry" />
        </mxCell>
        <mxCell id="mPellnfy7F6oBToL4v57-56" value="校验和" style="rounded=0;whiteSpace=wrap;html=1;fontSize=14;fillColor=#f5f5f5;fontColor=#333333;strokeColor=#666666;" parent="1" vertex="1">
          <mxGeometry x="-278" y="370" width="360" height="50" as="geometry" />
        </mxCell>
        <mxCell id="mPellnfy7F6oBToL4v57-57" value="紧急指针(16位)" style="rounded=0;whiteSpace=wrap;html=1;fontSize=14;fillColor=#f5f5f5;fontColor=#333333;strokeColor=#666666;" parent="1" vertex="1">
          <mxGeometry x="82" y="370" width="360" height="50" as="geometry" />
        </mxCell>
        <mxCell id="mPellnfy7F6oBToL4v57-60" value="把收到的服务端的&lt;div&gt;&amp;nbsp;ISN + 1&lt;/div&gt;" style="ellipse;shape=cloud;whiteSpace=wrap;html=1;fontSize=14;fillColor=#dae8fc;strokeColor=#6c8ebf;rounded=0;" parent="1" vertex="1">
          <mxGeometry x="-540" y="258" width="150" height="74" as="geometry" />
        </mxCell>
        <mxCell id="mPellnfy7F6oBToL4v57-61" style="edgeStyle=orthogonalEdgeStyle;rounded=0;orthogonalLoop=1;jettySize=auto;html=1;entryX=0.875;entryY=0.5;entryDx=0;entryDy=0;entryPerimeter=0;fillColor=#008a00;strokeColor=#005700;strokeWidth=3;" parent="1" source="mPellnfy7F6oBToL4v57-44" edge="1">
          <mxGeometry relative="1" as="geometry">
            <mxPoint x="-406.75" y="295" as="targetPoint" />
          </mxGeometry>
        </mxCell>
        <mxCell id="mPellnfy7F6oBToL4v57-62" value="ACK&amp;nbsp;&lt;span style=&quot;background-color: initial;&quot;&gt;位置标记&lt;/span&gt;&lt;div&gt;&lt;div&gt;为 1&lt;/div&gt;&lt;/div&gt;" style="ellipse;shape=cloud;whiteSpace=wrap;html=1;fontSize=14;fillColor=#dae8fc;strokeColor=#6c8ebf;rounded=0;" parent="1" vertex="1">
          <mxGeometry x="-538" y="408" width="150" height="74" as="geometry" />
        </mxCell>
        <mxCell id="mPellnfy7F6oBToL4v57-63" style="edgeStyle=orthogonalEdgeStyle;rounded=0;orthogonalLoop=1;jettySize=auto;html=1;entryX=0.625;entryY=0.2;entryDx=0;entryDy=0;entryPerimeter=0;fillColor=#008a00;strokeColor=#005700;strokeWidth=3;" parent="1" source="mPellnfy7F6oBToL4v57-49" edge="1">
          <mxGeometry relative="1" as="geometry">
            <mxPoint x="-444.25" y="422.79999999999995" as="targetPoint" />
          </mxGeometry>
        </mxCell>
        <mxCell id="mPellnfy7F6oBToL4v57-64" value="&lt;h1&gt;round 3&lt;/h1&gt;" style="text;html=1;align=center;verticalAlign=middle;resizable=0;points=[];autosize=1;strokeColor=none;fillColor=none;" parent="1" vertex="1">
          <mxGeometry x="29" y="110" width="110" height="70" as="geometry" />
        </mxCell>
      </root>
    </mxGraphModel>
  </diagram>
</mxfile>
